# xmcd
#
# Track frame offsets:
# 150
# 10897
# 22237
# 36870
# 47710
# 57815
# 72035
# 84367
# 99280
# 122565
# 134662
# 149845
# 162607
# 177732
# 191527
# 204612
# 218375
# 231107
# 246787
# 261675
#
# Disc length: 3656 seconds
#
#
# Revision: 3
# Processed by: cddbd v1.5.1PL0 Copyright (c) Steve Scherf et al.
# Submitted via: FreeRIP 2.90 
#
DISCID=2d0e4614
DTITLE=Aretha Franklin - The Queen In Waiting - Disc 1
DYEAR=2002
DGENRE=Soul
TTITLE0=Nobody Like You
TTITLE1=Once In A While
TTITLE2=Maybe I'm A Fool
TTITLE3=Muddy Water
TTITLE4=Bill Bailey, Won't You Please Come Home (Alternate Version)
TTITLE5=Hard Times (No One Knows Better Than I)
TTITLE6=Today I Sing The Blues
TTITLE7=Won't Be Long
TTITLE8=Nobody Knows The Way I Feel This Morning
TTITLE9=Evil Gal Blues
TTITLE10=Lee Cross
TTITLE11=Walk On By
TTITLE12=I Wonder (Where You Are Tonight)
TTITLE13=God Bless The Child
TTITLE14=Blue Holiday
TTITLE15=Looking Through A Tear
TTITLE16=Tiny Sparrow
TTITLE17=Here Today And Gone Tomorrow
TTITLE18=Little Brown Book
TTITLE19=Without The One You Love
EXTD=
EXTT0=
EXTT1=
EXTT2=
EXTT3=
EXTT4=
EXTT5=
EXTT6=
EXTT7=
EXTT8=
EXTT9=
EXTT10=
EXTT11=
EXTT12=
EXTT13=
EXTT14=
EXTT15=
EXTT16=
EXTT17=
EXTT18=
EXTT19=
PLAYORDER=
